<mxfile host="app.diagrams.net" modified="2024-01-16T12:57:30.948Z" agent="Mozilla/5.0 (Windows NT 10.0; Win64; x64) AppleWebKit/537.36 (KHTML, like Gecko) Chrome/120.0.0.0 Safari/537.36" etag="8jTmbZWCeeI_SMOFjZpb" version="22.1.18" type="device">
  <diagram name="Страница — 1" id="t58dsQ66D5s-zgrR1KKS">
    <mxGraphModel dx="847" dy="746" grid="1" gridSize="10" guides="1" tooltips="1" connect="1" arrows="1" fold="1" page="1" pageScale="1" pageWidth="827" pageHeight="1169" math="0" shadow="0">
      <root>
        <mxCell id="0" />
        <mxCell id="1" parent="0" />
        <mxCell id="rqjNP4Dof35-LxQoOWY4-1" value="&lt;span style=&quot;font-size: 22px;&quot;&gt;&lt;b&gt;ФУНКЦИОНАЛЬНАЯ&lt;br&gt;ДИАГРАММА&lt;br&gt;&lt;/b&gt;&lt;/span&gt;" style="text;html=1;strokeColor=none;fillColor=none;align=center;verticalAlign=middle;whiteSpace=wrap;rounded=0;" parent="1" vertex="1">
          <mxGeometry x="870" y="1160" width="240" height="90" as="geometry" />
        </mxCell>
        <mxCell id="rqjNP4Dof35-LxQoOWY4-2" value="" style="endArrow=classic;html=1;rounded=0;entryX=0;entryY=0.5;entryDx=0;entryDy=0;" parent="1" edge="1">
          <mxGeometry width="50" height="50" relative="1" as="geometry">
            <mxPoint x="890.36" y="1505" as="sourcePoint" />
            <mxPoint x="1045.36" y="1505" as="targetPoint" />
          </mxGeometry>
        </mxCell>
        <mxCell id="rqjNP4Dof35-LxQoOWY4-3" value="Логин" style="edgeLabel;html=1;align=center;verticalAlign=middle;resizable=0;points=[];" parent="rqjNP4Dof35-LxQoOWY4-2" vertex="1" connectable="0">
          <mxGeometry x="-0.2196" y="-1" relative="1" as="geometry">
            <mxPoint x="19" y="-1" as="offset" />
          </mxGeometry>
        </mxCell>
        <mxCell id="rqjNP4Dof35-LxQoOWY4-4" style="edgeStyle=orthogonalEdgeStyle;rounded=0;orthogonalLoop=1;jettySize=auto;html=1;exitX=0.5;exitY=0;exitDx=0;exitDy=0;entryX=0.5;entryY=1;entryDx=0;entryDy=0;" parent="1" source="rqjNP4Dof35-LxQoOWY4-33" target="rqjNP4Dof35-LxQoOWY4-11" edge="1">
          <mxGeometry relative="1" as="geometry">
            <Array as="points">
              <mxPoint x="1370" y="1552.5" />
              <mxPoint x="1370" y="1552.5" />
            </Array>
          </mxGeometry>
        </mxCell>
        <mxCell id="rqjNP4Dof35-LxQoOWY4-5" value="Запрос пользователя" style="edgeLabel;html=1;align=center;verticalAlign=middle;resizable=0;points=[];" parent="rqjNP4Dof35-LxQoOWY4-4" vertex="1" connectable="0">
          <mxGeometry x="0.1077" relative="1" as="geometry">
            <mxPoint y="1" as="offset" />
          </mxGeometry>
        </mxCell>
        <mxCell id="rqjNP4Dof35-LxQoOWY4-6" style="edgeStyle=orthogonalEdgeStyle;rounded=0;orthogonalLoop=1;jettySize=auto;html=1;exitX=0.5;exitY=1;exitDx=0;exitDy=0;entryX=0.5;entryY=0;entryDx=0;entryDy=0;" parent="1" source="rqjNP4Dof35-LxQoOWY4-33" target="rqjNP4Dof35-LxQoOWY4-16" edge="1">
          <mxGeometry relative="1" as="geometry">
            <Array as="points" />
          </mxGeometry>
        </mxCell>
        <mxCell id="rqjNP4Dof35-LxQoOWY4-7" value="Запрос пользователя" style="edgeLabel;html=1;align=center;verticalAlign=middle;resizable=0;points=[];" parent="rqjNP4Dof35-LxQoOWY4-6" vertex="1" connectable="0">
          <mxGeometry x="-0.101" relative="1" as="geometry">
            <mxPoint as="offset" />
          </mxGeometry>
        </mxCell>
        <mxCell id="rqjNP4Dof35-LxQoOWY4-8" style="edgeStyle=orthogonalEdgeStyle;rounded=0;orthogonalLoop=1;jettySize=auto;html=1;entryX=0;entryY=0.5;entryDx=0;entryDy=0;exitX=1;exitY=0.5;exitDx=0;exitDy=0;" parent="1" source="rqjNP4Dof35-LxQoOWY4-11" target="rqjNP4Dof35-LxQoOWY4-22" edge="1">
          <mxGeometry relative="1" as="geometry">
            <mxPoint x="1550" y="1452.5" as="sourcePoint" />
          </mxGeometry>
        </mxCell>
        <mxCell id="rqjNP4Dof35-LxQoOWY4-9" style="edgeStyle=orthogonalEdgeStyle;rounded=0;orthogonalLoop=1;jettySize=auto;html=1;exitX=1;exitY=0.5;exitDx=0;exitDy=0;" parent="1" source="rqjNP4Dof35-LxQoOWY4-11" target="rqjNP4Dof35-LxQoOWY4-25" edge="1">
          <mxGeometry relative="1" as="geometry">
            <mxPoint x="1550" y="1452.5" as="sourcePoint" />
            <Array as="points">
              <mxPoint x="1590" y="1443" />
              <mxPoint x="1590" y="1360" />
            </Array>
          </mxGeometry>
        </mxCell>
        <mxCell id="rqjNP4Dof35-LxQoOWY4-10" style="edgeStyle=orthogonalEdgeStyle;rounded=0;orthogonalLoop=1;jettySize=auto;html=1;exitX=1;exitY=0.5;exitDx=0;exitDy=0;entryX=0;entryY=0.5;entryDx=0;entryDy=0;" parent="1" source="rqjNP4Dof35-LxQoOWY4-11" target="rqjNP4Dof35-LxQoOWY4-29" edge="1">
          <mxGeometry relative="1" as="geometry">
            <mxPoint x="1550" y="1452.5" as="sourcePoint" />
            <Array as="points">
              <mxPoint x="1590" y="1443" />
              <mxPoint x="1590" y="1525" />
            </Array>
          </mxGeometry>
        </mxCell>
        <mxCell id="OQb4l0_WjDKkirOpN4id-17" value="Запрос пользователя" style="edgeLabel;html=1;align=center;verticalAlign=middle;resizable=0;points=[];" parent="rqjNP4Dof35-LxQoOWY4-10" vertex="1" connectable="0">
          <mxGeometry x="-0.5046" relative="1" as="geometry">
            <mxPoint x="13" as="offset" />
          </mxGeometry>
        </mxCell>
        <mxCell id="rqjNP4Dof35-LxQoOWY4-11" value="Просмотр карт" style="rounded=1;whiteSpace=wrap;html=1;" parent="1" vertex="1">
          <mxGeometry x="1310" y="1412.5" width="120" height="60" as="geometry" />
        </mxCell>
        <mxCell id="rqjNP4Dof35-LxQoOWY4-12" value="Регистрация пользователя" style="rounded=1;whiteSpace=wrap;html=1;" parent="1" vertex="1">
          <mxGeometry x="1045.36" y="1485" width="120" height="130" as="geometry" />
        </mxCell>
        <mxCell id="rqjNP4Dof35-LxQoOWY4-16" value="Просмотр сервисов" style="rounded=1;whiteSpace=wrap;html=1;" parent="1" vertex="1">
          <mxGeometry x="1310" y="1682.5" width="120" height="60" as="geometry" />
        </mxCell>
        <mxCell id="rqjNP4Dof35-LxQoOWY4-22" value="Добавить данные карты" style="rounded=1;whiteSpace=wrap;html=1;" parent="1" vertex="1">
          <mxGeometry x="1620" y="1412.5" width="170" height="60" as="geometry" />
        </mxCell>
        <mxCell id="rqjNP4Dof35-LxQoOWY4-25" value="Изменить данные карты" style="rounded=1;whiteSpace=wrap;html=1;" parent="1" vertex="1">
          <mxGeometry x="1620" y="1330" width="160" height="60" as="geometry" />
        </mxCell>
        <mxCell id="rqjNP4Dof35-LxQoOWY4-29" value="Удалить данные&lt;br&gt;карты" style="rounded=1;whiteSpace=wrap;html=1;" parent="1" vertex="1">
          <mxGeometry x="1620" y="1495" width="130" height="60" as="geometry" />
        </mxCell>
        <mxCell id="rqjNP4Dof35-LxQoOWY4-31" value="" style="edgeStyle=orthogonalEdgeStyle;rounded=0;orthogonalLoop=1;jettySize=auto;html=1;exitX=1;exitY=0.5;exitDx=0;exitDy=0;" parent="1" source="rqjNP4Dof35-LxQoOWY4-12" target="rqjNP4Dof35-LxQoOWY4-33" edge="1">
          <mxGeometry relative="1" as="geometry">
            <mxPoint x="1145" y="1562.5" as="sourcePoint" />
            <mxPoint x="1390" y="1562.5" as="targetPoint" />
            <Array as="points">
              <mxPoint x="1240" y="1550" />
              <mxPoint x="1240" y="1550" />
            </Array>
          </mxGeometry>
        </mxCell>
        <mxCell id="rqjNP4Dof35-LxQoOWY4-32" value="Данные пользователя" style="edgeLabel;html=1;align=center;verticalAlign=middle;resizable=0;points=[];" parent="rqjNP4Dof35-LxQoOWY4-31" vertex="1" connectable="0">
          <mxGeometry x="-0.3832" relative="1" as="geometry">
            <mxPoint x="30" y="-10" as="offset" />
          </mxGeometry>
        </mxCell>
        <mxCell id="rqjNP4Dof35-LxQoOWY4-33" value="Авторизация в приложении" style="rounded=1;whiteSpace=wrap;html=1;" parent="1" vertex="1">
          <mxGeometry x="1310" y="1540" width="120" height="80" as="geometry" />
        </mxCell>
        <mxCell id="OQb4l0_WjDKkirOpN4id-1" value="" style="endArrow=classic;html=1;rounded=0;entryX=0;entryY=0.75;entryDx=0;entryDy=0;" parent="1" edge="1">
          <mxGeometry width="50" height="50" relative="1" as="geometry">
            <mxPoint x="890.36" y="1532.5" as="sourcePoint" />
            <mxPoint x="1045.36" y="1532.5" as="targetPoint" />
          </mxGeometry>
        </mxCell>
        <mxCell id="OQb4l0_WjDKkirOpN4id-2" value="Пароль" style="edgeLabel;html=1;align=center;verticalAlign=middle;resizable=0;points=[];" parent="OQb4l0_WjDKkirOpN4id-1" vertex="1" connectable="0">
          <mxGeometry x="-0.0323" y="-2" relative="1" as="geometry">
            <mxPoint x="5" as="offset" />
          </mxGeometry>
        </mxCell>
        <mxCell id="OQb4l0_WjDKkirOpN4id-4" value="" style="endArrow=classic;html=1;rounded=0;entryX=0.003;entryY=0.399;entryDx=0;entryDy=0;entryPerimeter=0;" parent="1" edge="1">
          <mxGeometry width="50" height="50" relative="1" as="geometry">
            <mxPoint x="890" y="1565.15" as="sourcePoint" />
            <mxPoint x="1045.3600000000001" y="1565" as="targetPoint" />
          </mxGeometry>
        </mxCell>
        <mxCell id="OQb4l0_WjDKkirOpN4id-5" value="Телефон" style="edgeLabel;html=1;align=center;verticalAlign=middle;resizable=0;points=[];" parent="OQb4l0_WjDKkirOpN4id-4" vertex="1" connectable="0">
          <mxGeometry x="-0.153" y="-1" relative="1" as="geometry">
            <mxPoint x="14" as="offset" />
          </mxGeometry>
        </mxCell>
        <mxCell id="OQb4l0_WjDKkirOpN4id-6" value="" style="endArrow=classic;html=1;rounded=0;entryX=0;entryY=0.5;entryDx=0;entryDy=0;" parent="1" edge="1">
          <mxGeometry width="50" height="50" relative="1" as="geometry">
            <mxPoint x="890.36" y="1595" as="sourcePoint" />
            <mxPoint x="1045.36" y="1595" as="targetPoint" />
          </mxGeometry>
        </mxCell>
        <mxCell id="OQb4l0_WjDKkirOpN4id-7" value="Почта" style="edgeLabel;html=1;align=center;verticalAlign=middle;resizable=0;points=[];" parent="OQb4l0_WjDKkirOpN4id-6" vertex="1" connectable="0">
          <mxGeometry x="0.0813" y="-2" relative="1" as="geometry">
            <mxPoint x="-4" y="-2" as="offset" />
          </mxGeometry>
        </mxCell>
        <mxCell id="OQb4l0_WjDKkirOpN4id-9" value="" style="endArrow=classic;html=1;rounded=0;entryX=0;entryY=0.5;entryDx=0;entryDy=0;" parent="1" edge="1">
          <mxGeometry width="50" height="50" relative="1" as="geometry">
            <mxPoint x="1200" y="1577.08" as="sourcePoint" />
            <mxPoint x="1310" y="1577.25" as="targetPoint" />
          </mxGeometry>
        </mxCell>
        <mxCell id="OQb4l0_WjDKkirOpN4id-10" value="Логин" style="edgeLabel;html=1;align=center;verticalAlign=middle;resizable=0;points=[];" parent="OQb4l0_WjDKkirOpN4id-9" vertex="1" connectable="0">
          <mxGeometry x="-0.2196" y="-1" relative="1" as="geometry">
            <mxPoint x="19" y="-1" as="offset" />
          </mxGeometry>
        </mxCell>
        <mxCell id="OQb4l0_WjDKkirOpN4id-11" value="" style="endArrow=classic;html=1;rounded=0;entryX=0;entryY=0.75;entryDx=0;entryDy=0;" parent="1" edge="1">
          <mxGeometry width="50" height="50" relative="1" as="geometry">
            <mxPoint x="1200" y="1607.83" as="sourcePoint" />
            <mxPoint x="1310" y="1607.5" as="targetPoint" />
          </mxGeometry>
        </mxCell>
        <mxCell id="OQb4l0_WjDKkirOpN4id-12" value="Пароль" style="edgeLabel;html=1;align=center;verticalAlign=middle;resizable=0;points=[];" parent="OQb4l0_WjDKkirOpN4id-11" vertex="1" connectable="0">
          <mxGeometry x="-0.0323" y="-2" relative="1" as="geometry">
            <mxPoint x="5" as="offset" />
          </mxGeometry>
        </mxCell>
        <mxCell id="OQb4l0_WjDKkirOpN4id-13" value="" style="endArrow=classic;html=1;rounded=0;entryX=0;entryY=0.75;entryDx=0;entryDy=0;" parent="1" edge="1">
          <mxGeometry width="50" height="50" relative="1" as="geometry">
            <mxPoint x="1190" y="1712" as="sourcePoint" />
            <mxPoint x="1310" y="1712.08" as="targetPoint" />
          </mxGeometry>
        </mxCell>
        <mxCell id="OQb4l0_WjDKkirOpN4id-14" value="Данные о &lt;br&gt;сервисах из БД" style="edgeLabel;html=1;align=center;verticalAlign=middle;resizable=0;points=[];" parent="OQb4l0_WjDKkirOpN4id-13" vertex="1" connectable="0">
          <mxGeometry x="-0.0323" y="-2" relative="1" as="geometry">
            <mxPoint x="2" y="-2" as="offset" />
          </mxGeometry>
        </mxCell>
        <mxCell id="OQb4l0_WjDKkirOpN4id-15" value="" style="endArrow=classic;html=1;rounded=0;entryX=0;entryY=0.75;entryDx=0;entryDy=0;" parent="1" edge="1">
          <mxGeometry width="50" height="50" relative="1" as="geometry">
            <mxPoint x="1170" y="1439.58" as="sourcePoint" />
            <mxPoint x="1310" y="1439.58" as="targetPoint" />
          </mxGeometry>
        </mxCell>
        <mxCell id="OQb4l0_WjDKkirOpN4id-16" value="Данные о &lt;br&gt;картах&amp;nbsp;из БД" style="edgeLabel;html=1;align=center;verticalAlign=middle;resizable=0;points=[];" parent="OQb4l0_WjDKkirOpN4id-15" vertex="1" connectable="0">
          <mxGeometry x="-0.0323" y="-2" relative="1" as="geometry">
            <mxPoint x="13" y="-2" as="offset" />
          </mxGeometry>
        </mxCell>
        <mxCell id="OQb4l0_WjDKkirOpN4id-18" style="edgeStyle=orthogonalEdgeStyle;rounded=0;orthogonalLoop=1;jettySize=auto;html=1;entryX=0;entryY=0.5;entryDx=0;entryDy=0;exitX=1;exitY=0.5;exitDx=0;exitDy=0;" parent="1" target="OQb4l0_WjDKkirOpN4id-22" edge="1">
          <mxGeometry relative="1" as="geometry">
            <mxPoint x="1430" y="1713" as="sourcePoint" />
          </mxGeometry>
        </mxCell>
        <mxCell id="OQb4l0_WjDKkirOpN4id-19" style="edgeStyle=orthogonalEdgeStyle;rounded=0;orthogonalLoop=1;jettySize=auto;html=1;exitX=1;exitY=0.5;exitDx=0;exitDy=0;" parent="1" target="OQb4l0_WjDKkirOpN4id-23" edge="1">
          <mxGeometry relative="1" as="geometry">
            <mxPoint x="1430" y="1713" as="sourcePoint" />
            <Array as="points">
              <mxPoint x="1590" y="1713" />
              <mxPoint x="1590" y="1630" />
            </Array>
          </mxGeometry>
        </mxCell>
        <mxCell id="OQb4l0_WjDKkirOpN4id-20" style="edgeStyle=orthogonalEdgeStyle;rounded=0;orthogonalLoop=1;jettySize=auto;html=1;exitX=1;exitY=0.5;exitDx=0;exitDy=0;entryX=0;entryY=0.5;entryDx=0;entryDy=0;" parent="1" target="OQb4l0_WjDKkirOpN4id-24" edge="1">
          <mxGeometry relative="1" as="geometry">
            <mxPoint x="1430" y="1713" as="sourcePoint" />
            <Array as="points">
              <mxPoint x="1590" y="1713" />
              <mxPoint x="1590" y="1795" />
            </Array>
          </mxGeometry>
        </mxCell>
        <mxCell id="OQb4l0_WjDKkirOpN4id-21" value="Запрос пользователя" style="edgeLabel;html=1;align=center;verticalAlign=middle;resizable=0;points=[];" parent="OQb4l0_WjDKkirOpN4id-20" vertex="1" connectable="0">
          <mxGeometry x="-0.5046" relative="1" as="geometry">
            <mxPoint x="13" as="offset" />
          </mxGeometry>
        </mxCell>
        <mxCell id="OQb4l0_WjDKkirOpN4id-22" value="Добавить данные сервиса" style="rounded=1;whiteSpace=wrap;html=1;" parent="1" vertex="1">
          <mxGeometry x="1620" y="1682.5" width="170" height="60" as="geometry" />
        </mxCell>
        <mxCell id="OQb4l0_WjDKkirOpN4id-23" value="Изменить данные сервиса" style="rounded=1;whiteSpace=wrap;html=1;" parent="1" vertex="1">
          <mxGeometry x="1620" y="1600" width="160" height="60" as="geometry" />
        </mxCell>
        <mxCell id="OQb4l0_WjDKkirOpN4id-24" value="Удалить данные сервиса" style="rounded=1;whiteSpace=wrap;html=1;" parent="1" vertex="1">
          <mxGeometry x="1620" y="1765" width="130" height="60" as="geometry" />
        </mxCell>
      </root>
    </mxGraphModel>
  </diagram>
</mxfile>
